<?xml version="1.0" encoding="UTF-8"?>
<svg width="80px" height="107px" viewBox="0 0 80 107" version="1.1" xmlns="http://www.w3.org/2000/svg" xmlns:xlink="http://www.w3.org/1999/xlink">
    <!-- Generator: Sketch 41.1 (35376) - http://www.bohemiancoding.com/sketch -->
    <title>Group Copy 9</title>
    <desc>Created with Sketch.</desc>
    <defs></defs>
    <g id="Page-1" stroke="none" stroke-width="1" fill="none" fill-rule="evenodd">
        <g id="Group-Copy-9" fill="#363636">
            <path d="M13.1279659,16.337 L24.1697659,16.337 L24.1697659,30.9362 C23.1225606,31.8910048 21.7596742,32.6147975 20.0810659,33.1076 C18.4024575,33.6004025 16.6853746,33.8468 14.9297659,33.8468 C12.8661555,33.8468 10.9334749,33.4926035 9.13166585,32.7842 C7.32985684,32.0757965 5.76677248,31.0055072 4.44236585,29.5733 C3.11795923,28.1410928 2.0707697,26.3701105 1.30076585,24.2603 C0.530762004,22.1504895 0.145765854,19.6788142 0.145765854,16.8452 C0.145765854,13.8575851 0.607761234,11.3166105 1.53176585,9.2222 C2.45577047,7.12778953 3.64925854,5.4107067 5.11226585,4.0709 C6.57527317,2.7310933 8.21535677,1.75320308 10.0325659,1.1372 C11.8497749,0.52119692 13.6515569,0.2132 15.4379659,0.2132 C17.2859751,0.2132 18.8259597,0.359498537 20.0579659,0.6521 C21.289972,0.944701463 22.4141608,1.32199769 23.4305659,1.784 L23.4305659,11.3474 L18.3485659,11.3474 L18.3485659,6.2192 L17.6093659,6.0344 C16.9933628,5.91119938 16.3157695,5.8496 15.5765659,5.8496 C14.3137595,5.8496 13.1433712,6.06519784 12.0653659,6.4964 C10.9873605,6.92760216 10.0556698,7.59749546 9.27026585,8.5061 C8.48486193,9.41470454 7.87656801,10.5773929 7.44536585,11.9942 C7.0141637,13.4110071 6.79856585,15.1049901 6.79856585,17.0762 C6.79856585,18.8318088 7.0141637,20.4025931 7.44536585,21.7886 C7.87656801,23.1746069 8.477162,24.3449952 9.24716585,25.2998 C10.0171697,26.2546048 10.9334605,26.9783975 11.9960659,27.4712 C13.0586712,27.9640025 14.2059597,28.2104 15.4379659,28.2104 C16.2387699,28.2104 16.9702625,28.1180009 17.6324659,27.9332 C18.2946692,27.7483991 18.7489646,27.5636009 18.9953659,27.3788 L18.9953659,20.957 L13.1279659,20.957 L13.1279659,16.337 Z M45.0521659,20.033 L50.7809659,20.033 L50.7809659,33.2 L29.5289659,33.2 L29.5289659,0.86 L35.8583659,0.86 L35.8583659,27.5636 L45.0521659,27.5636 L45.0521659,20.033 Z M70.8053659,26.039 L61.1495659,26.039 L58.9319659,33.2 L52.6025659,33.2 L63.0437659,0.86 L69.3731659,0.86 L79.7681659,33.2 L73.1153659,33.2 L70.8053659,26.039 Z M62.6279659,20.957 L69.5579659,20.957 L66.2777659,10.1462 L65.8619659,10.1462 L62.6279659,20.957 Z" id="GLA"></path>
            <path d="M8.5906598,55.8842 L8.6830598,59.765 L8.8678598,59.765 L9.6532598,56.1152 L12.4252598,47.522 L17.1376598,47.522 L19.7248598,56.1152 L20.5564598,59.765 L20.7412598,59.765 L20.8336598,55.7918 L22.1272598,37.82 L27.9484598,37.82 L24.6220598,70.16 L19.2628598,70.16 L15.7978598,59.9498 L14.7352598,55.5146 L14.5042598,55.5146 L13.3954598,59.9498 L9.6532598,70.16 L4.1092598,70.16 L0.782859805,37.82 L7.1122598,37.82 L8.5906598,55.8842 Z M30.5861305,37.82 L51.7919305,37.82 L51.7919305,43.4564 L36.9155305,43.4564 L36.9155305,50.987 L50.6369305,50.987 L50.6369305,56.6234 L36.9155305,56.6234 L36.9155305,64.5236 L52.0229305,64.5236 L52.0229305,70.16 L30.5861305,70.16 L30.5861305,37.82 Z M78.8232012,45.3506 C78.8232012,46.151404 78.7231022,46.952196 78.5229012,47.753 C78.3227002,48.553804 77.9916035,49.2852967 77.5296012,49.9475 C77.0675989,50.6097033 76.4670049,51.1948975 75.7278012,51.7031 C74.9885975,52.2113025 74.0954064,52.5885988 73.0482012,52.835 L73.0482012,53.1122 C73.9722058,53.2662008 74.849997,53.5279982 75.6816012,53.8976 C76.5132054,54.2672018 77.2369981,54.7753968 77.8530012,55.4222 C78.4690043,56.0690032 78.9540994,56.8543954 79.3083012,57.7784 C79.662503,58.7024046 79.8396012,59.7957937 79.8396012,61.0586 C79.8396012,62.7218083 79.4854047,64.1616939 78.7770012,65.3783 C78.0685977,66.5949061 77.1215071,67.5881961 75.9357012,68.3582 C74.7498953,69.1282038 73.4024087,69.6979982 71.8932012,70.0676 C70.3839937,70.4372018 68.8286092,70.622 67.2270012,70.622 L65.2173012,70.622 C64.4010971,70.622 63.5233059,70.5989002 62.5839012,70.5527 C61.6444965,70.5064998 60.6897061,70.4372005 59.7195012,70.3448 C58.7492964,70.2523995 57.8638052,70.1138009 57.0630012,69.929 L57.0630012,38.051 C57.6482041,37.9585995 58.3180974,37.8662005 59.0727012,37.7738 C59.827305,37.6813995 60.6357969,37.6044003 61.4982012,37.5428 C62.3606055,37.4811997 63.2460967,37.4350002 64.1547012,37.4042 C65.0633057,37.3733998 65.9641967,37.358 66.8574012,37.358 C68.3666087,37.358 69.837294,37.4734988 71.2695012,37.7045 C72.7017084,37.9355012 73.9798956,38.3435971 75.1041012,38.9288 C76.2283068,39.5140029 77.1291978,40.3301948 77.8068012,41.3774 C78.4844046,42.4246052 78.8232012,43.748992 78.8232012,45.3506 Z M67.2732012,65.4014 C68.0432051,65.4014 68.7900976,65.3090009 69.5139012,65.1242 C70.2377048,64.9393991 70.8767984,64.6545019 71.4312012,64.2695 C71.985604,63.8844981 72.4321995,63.3994029 72.7710012,62.8142 C73.1098029,62.2289971 73.2792012,61.536004 73.2792012,60.7352 C73.2792012,59.7187949 73.0790032,58.9180029 72.6786012,58.3328 C72.2781992,57.7475971 71.7546044,57.2933016 71.1078012,56.9699 C70.460998,56.6464984 69.7372052,56.4386005 68.9364012,56.3462 C68.1355972,56.2537995 67.3348052,56.2076 66.5340012,56.2076 L63.1614012,56.2076 L63.1614012,65.1242 C63.315402,65.1858003 63.5617995,65.2319998 63.9006012,65.2628 C64.2394029,65.2936002 64.6012993,65.3166999 64.9863012,65.3321 C65.3713031,65.3475001 65.7716991,65.3628999 66.1875012,65.3783 C66.6033033,65.3937001 66.9651997,65.4014 67.2732012,65.4014 Z M65.1942012,51.4028 C65.6254034,51.4028 66.1258984,51.3874002 66.6957012,51.3566 C67.2655041,51.3257998 67.7351994,51.2796003 68.1048012,51.218 C69.2752071,50.8483982 70.283897,50.2940037 71.1309012,49.5548 C71.9779054,48.8155963 72.4014012,47.845406 72.4014012,46.6442 C72.4014012,45.843396 72.2474027,45.1812026 71.9394012,44.6576 C71.6313997,44.1339974 71.2233037,43.7182015 70.7151012,43.4102 C70.2068987,43.1021985 69.6294044,42.8866006 68.9826012,42.7634 C68.335798,42.6401994 67.6582047,42.5786 66.9498012,42.5786 C66.1489972,42.5786 65.4098046,42.5939998 64.7322012,42.6248 C64.0545978,42.6556002 63.5310031,42.7017997 63.1614012,42.7634 L63.1614012,51.4028 L65.1942012,51.4028 Z" id="WEB"></path>
            <path d="M1.17536585,73.46 C1.45256724,73.4291998 1.93766239,73.3830003 2.63066585,73.3214 C3.32366932,73.2597997 4.10906146,73.2059002 4.98686585,73.1597 C5.86467024,73.1134998 6.77326116,73.0750002 7.71266585,73.0442 C8.65207055,73.0133998 9.49136216,72.998 10.2305659,72.998 C13.0949802,72.998 15.4665565,73.4137958 17.3453659,74.2454 C19.2241752,75.0770042 20.7102604,76.2242927 21.8036659,77.6873 C22.8970713,79.1503073 23.6593637,80.8750901 24.0905659,82.8617 C24.521768,84.8483099 24.7373659,87.0119883 24.7373659,89.3528 C24.7373659,91.4780106 24.521768,93.5569898 24.0905659,95.5898 C23.6593637,97.6226102 22.8816715,99.4320921 21.7574659,101.0183 C20.6332602,102.604508 19.0778758,103.882695 17.0912659,104.8529 C15.1046559,105.823105 12.5559814,106.3082 9.44516585,106.3082 C8.95236339,106.3082 8.3209697,106.2928 7.55096585,106.262 C6.780962,106.2312 5.99556986,106.1927 5.19476585,106.1465 C4.39396185,106.1003 3.62396955,106.0541 2.88476585,106.0079 C2.14556216,105.9617 1.57576786,105.9078 1.17536585,105.8462 L1.17536585,73.46 Z M10.4615659,78.6344 C9.87636293,78.6344 9.30656863,78.6574998 8.75216585,78.7037 C8.19776308,78.7499002 7.78196724,78.7883998 7.50476585,78.8192 L7.50476585,100.487 C7.62796647,100.5178 7.81276462,100.5409 8.05916585,100.5563 C8.30556709,100.5717 8.55966454,100.5871 8.82146585,100.6025 C9.08326716,100.6179 9.33736462,100.6333 9.58376585,100.6487 C9.83016709,100.6641 10.0303651,100.6718 10.1843659,100.6718 C11.9707748,100.6718 13.3952605,100.340703 14.4578659,99.6785 C15.5204712,99.0162967 16.3135632,98.1462054 16.8371659,97.0682 C17.3607685,95.9901946 17.6995651,94.7736068 17.8535659,93.4184 C18.0075666,92.0631932 18.0845659,90.7080068 18.0845659,89.3528 C18.0845659,88.1823941 18.0152665,86.9658063 17.8766659,85.703 C17.7380652,84.4401937 17.4146684,83.2852052 16.9064659,82.238 C16.3982633,81.1907948 15.6359709,80.3284034 14.6195659,79.6508 C13.6031608,78.9731966 12.2171746,78.6344 10.4615659,78.6344 Z M30.4793659,73.46 L51.6851659,73.46 L51.6851659,79.0964 L36.8087659,79.0964 L36.8087659,86.627 L50.5301659,86.627 L50.5301659,92.2634 L36.8087659,92.2634 L36.8087659,100.1636 L51.9161659,100.1636 L51.9161659,105.8 L30.4793659,105.8 L30.4793659,73.46 Z M66.4625659,97.1606 L66.6935659,97.1606 L73.0691659,73.46 L79.6295659,73.46 L69.9275659,105.8 L62.7203659,105.8 L52.7411659,73.46 L59.8097659,73.46 L66.4625659,97.1606 Z" id="DEV"></path>
        </g>
    </g>
</svg>